<svg width="444" height="160" viewBox="0 0 444 160" fill="none" xmlns="http://www.w3.org/2000/svg">
<path fill-rule="evenodd" clip-rule="evenodd" d="M297.145 54.5473C280.935 54.138 225.465 67.7492 209.6 92.7817C241.215 67.1352 300.613 64.372 337.555 70.7171C300.326 17.93 246.503 31.8278 213.355 41.7139C228.337 39.9314 243.458 39.9314 258.44 41.7139C265.721 42.5735 290.803 47.8543 297.145 54.4655V54.5473ZM383.196 72.9686C383.196 72.9686 422.322 67.4218 440.678 97.039H424.487C419.566 90.1578 413.345 84.4589 406.228 80.3121C399.111 76.1654 391.257 73.6634 383.177 72.9686H383.196ZM281.031 0C342.345 4.76905 390.247 95.2992 390.247 95.2992C346.963 41.8981 281.031 0 281.031 0ZM381.97 60.524C382.353 51.4771 378.693 41.2431 374.861 34.8571C369.707 26.24 358.938 27.9184 348.707 28.4711C361.372 36.863 366.105 38.5413 381.97 60.524V60.524ZM0 97.1004C25.1389 80.726 39.3945 78.4131 74.4779 74.5856C71.0864 72.3955 67.7141 71.8429 63.3646 70.7171C39.1071 65.027 17.6087 80.7055 0 97.1413V97.1004ZM145.622 76.1207C203.87 85.6997 188.599 65.6615 224.66 59.7462C224.66 59.7462 202.625 74.299 194.903 92.0857C168.883 92.0857 146.235 97.1618 125.56 78.4336C118.912 72.3955 101.724 66.951 93.7536 65.0474C83.0044 62.4889 61.1803 59.255 56.4667 58.1907C72.9258 55.0795 93.1213 48.1818 109.714 48.0999C117.705 48.1204 134.413 68.3428 145.603 76.1207H145.622Z" fill="#FC832B"/>
<path d="M60.1075 155.782H50.5271C51.0253 155.782 51.5426 155.229 52.1175 154.369C52.8254 152.908 53.1247 151.259 52.9797 149.621V116.872L36.9038 156.498L20.598 116.933V149.293C20.4464 151.025 20.8227 152.762 21.671 154.247C22.12 154.984 22.7988 155.528 23.5871 155.782H14.5049C15.3246 155.565 16.0449 155.042 16.5359 154.308C17.4319 152.821 17.8241 151.051 17.6472 149.293V149.293V116.544C17.8062 115.015 17.4309 113.477 16.5934 112.226C16.0427 111.537 15.3175 111.032 14.5049 110.772H22.7823L37.9002 147.369L52.6923 110.752H60.1075C59.3996 110.978 58.789 111.464 58.383 112.123C57.6434 113.515 57.3223 115.115 57.4633 116.708V116.708V149.928C57.3204 151.501 57.642 153.083 58.383 154.451C58.7827 155.117 59.3958 155.605 60.1075 155.823V155.782ZM77.8312 133.779C77.7622 129.464 78.725 125.202 80.6286 121.395C82.4391 117.835 85.1649 114.902 88.4846 112.942C92.0662 110.881 96.086 109.844 100.153 109.933V109.933C103.738 109.909 107.278 110.793 110.481 112.512C113.677 114.263 116.337 116.955 118.145 120.27C120.171 124.052 121.179 128.359 121.058 132.714C121.124 136.996 120.161 141.224 118.26 144.995C116.461 148.564 113.733 151.501 110.404 153.448C106.823 155.509 102.803 156.546 98.7356 156.457V156.457C95.1509 156.479 91.6121 155.595 88.4079 153.878C85.2118 152.128 82.5521 149.436 80.7436 146.121C78.7223 142.337 77.7147 138.031 77.8312 133.676V133.779ZM116.153 133.779C116.203 130.045 115.414 126.353 113.853 123.012C112.422 119.937 110.237 117.334 107.53 115.48C104.823 113.663 101.683 112.718 98.4865 112.758V112.758C95.5884 112.71 92.7419 113.579 90.3048 115.255C87.8579 117 85.9139 119.438 84.6907 122.296C83.287 125.619 82.5932 129.233 82.6597 132.878C82.6072 136.612 83.3958 140.304 84.959 143.644C86.3791 146.728 88.5667 149.334 91.282 151.176C93.9864 153 97.1281 153.946 100.326 153.899V153.899C103.225 153.959 106.075 153.089 108.508 151.402C110.973 149.68 112.923 147.235 114.122 144.361C115.537 141.042 116.231 137.424 116.153 133.779V133.779ZM142.154 113.413C140.598 113.357 139.057 113.745 137.689 114.539C136.589 115.183 135.69 116.158 135.103 117.343V117.343L135.965 110.793H165.032L165.894 117.343C165.307 116.158 164.408 115.183 163.307 114.539C161.94 113.745 160.398 113.357 158.843 113.413H152.711V149.764C152.634 151.16 152.843 152.557 153.325 153.858C153.595 154.598 154.061 155.238 154.666 155.7C155.164 156.007 155.394 156.089 155.394 155.966H145.66C145.66 156.089 145.909 155.966 146.388 155.7C146.996 155.264 147.459 154.633 147.71 153.899C148.161 152.59 148.357 151.197 148.285 149.805V149.805V113.331L142.154 113.413ZM179.939 133.881C179.87 129.566 180.833 125.304 182.736 121.498C184.534 117.934 187.255 114.999 190.573 113.044C194.162 110.983 198.188 109.947 202.261 110.036V110.036C205.846 110.011 209.385 110.895 212.589 112.615C215.786 114.363 218.446 117.056 220.253 120.372C222.279 124.154 223.287 128.461 223.165 132.817V132.817C223.229 137.096 222.273 141.322 220.387 145.097C218.588 148.667 215.859 151.603 212.531 153.551C208.95 155.612 204.93 156.648 200.862 156.559V156.559C197.272 156.581 193.727 155.698 190.516 153.98C187.322 152.226 184.663 149.535 182.851 146.223C180.83 142.439 179.822 138.134 179.939 133.779V133.881ZM218.26 133.881C218.311 130.147 217.522 126.455 215.961 123.115C214.537 120.04 212.358 117.437 209.657 115.582C206.95 113.765 203.81 112.82 200.613 112.86V112.86C197.715 112.812 194.869 113.681 192.432 115.357C189.975 117.09 188.028 119.532 186.818 122.398C185.414 125.721 184.72 129.336 184.786 132.98V132.98C184.734 136.714 185.523 140.406 187.086 143.746C188.506 146.83 190.694 149.436 193.409 151.279C196.112 153.104 199.255 154.05 202.453 154.001V154.001C205.352 154.061 208.202 153.191 210.634 151.504C213.1 149.782 215.049 147.337 216.248 144.463C217.646 141.139 218.333 137.524 218.26 133.881V133.881ZM261.391 156.682C257.653 156.722 253.958 155.825 250.604 154.062C247.288 152.325 244.519 149.594 242.633 146.203C240.537 142.327 239.495 137.904 239.625 133.431C239.57 129.234 240.555 125.096 242.48 121.436C244.373 117.917 247.155 115.037 250.508 113.126C254.179 111.065 258.279 110.03 262.426 110.117V110.117C265.045 110.082 267.657 110.434 270.186 111.161C272.092 111.689 273.931 112.459 275.666 113.454V113.454V120.72C274.306 118.269 272.309 116.292 269.918 115.03C267.573 113.634 264.938 112.888 262.253 112.86V112.86C258.945 112.773 255.673 113.62 252.769 115.316C250.118 116.942 247.978 119.371 246.618 122.296C245.135 125.602 244.4 129.233 244.472 132.898V132.898C244.365 136.843 245.216 140.75 246.944 144.238C248.462 147.223 250.75 149.681 253.535 151.32C256.293 152.892 259.376 153.701 262.503 153.673V153.673C264.037 153.666 265.566 153.481 267.063 153.121C268.58 152.768 270.053 152.225 271.451 151.504V151.504V140.697C271.508 139.6 271.297 138.507 270.837 137.524C270.519 136.866 270.051 136.303 269.477 135.887C268.998 135.559 268.749 135.436 268.749 135.518H278.559C278.559 135.518 278.329 135.518 277.831 135.784C277.26 136.134 276.79 136.643 276.471 137.258C276.019 138.199 275.807 139.251 275.858 140.308V140.308V152.22C273.746 153.601 271.463 154.655 269.075 155.352C266.634 156.112 264.106 156.498 261.564 156.498L261.391 156.682ZM296.532 155.966C296.532 156.089 296.781 155.986 297.279 155.659C297.881 155.202 298.347 154.57 298.621 153.837C299.098 152.578 299.307 151.222 299.234 149.866V149.866V116.811C299.296 115.459 299.1 114.108 298.659 112.84C298.387 112.117 297.929 111.492 297.337 111.039C296.839 110.752 296.589 110.629 296.589 110.711H306.342C306.342 110.711 306.112 110.711 305.614 111.039C305.017 111.497 304.547 112.119 304.254 112.84C303.787 114.102 303.578 115.455 303.641 116.811V116.811V149.682C303.577 151.037 303.786 152.392 304.254 153.653C304.536 154.381 305.008 155.006 305.614 155.454C306.112 155.761 306.342 155.864 306.342 155.782H296.666L296.532 155.966ZM356.141 110.936H364.878C364.168 111.194 363.569 111.717 363.192 112.41C362.518 113.788 362.226 115.343 362.349 116.892V157.828L330.964 118.734V150.112C330.825 151.669 331.19 153.229 331.999 154.533C332.506 155.249 333.22 155.767 334.03 156.007H325.388C326.121 155.764 326.742 155.239 327.132 154.533C327.837 153.166 328.144 151.605 328.013 150.051V117.302C328.017 115.803 327.521 114.352 326.614 113.208C325.711 112.026 324.451 111.216 323.051 110.916H330.715L359.456 146.755V116.667C359.456 113.31 358.402 111.325 356.256 110.711L356.141 110.936ZM382.66 134.004C382.594 129.692 383.55 125.432 385.438 121.621C387.248 118.06 389.974 115.127 393.294 113.167C396.875 111.106 400.895 110.07 404.963 110.158V110.158C408.554 110.136 412.099 111.02 415.31 112.737C418.507 114.486 421.167 117.178 422.974 120.495C425 124.277 426.008 128.584 425.886 132.939C425.952 137.221 424.989 141.45 423.089 145.22C421.302 148.792 418.579 151.73 415.252 153.673C411.664 155.737 407.638 156.774 403.564 156.682C399.979 156.704 396.44 155.82 393.236 154.103C390.043 152.349 387.384 149.658 385.572 146.346C383.551 142.562 382.543 138.256 382.66 133.901V134.004ZM420.981 134.004C421.031 130.27 420.243 126.578 418.682 123.237C417.25 120.162 415.065 117.559 412.359 115.705C409.654 113.884 406.512 112.938 403.315 112.983V112.983C400.417 112.935 397.57 113.804 395.133 115.48C392.686 117.225 390.742 119.663 389.519 122.521C388.155 125.853 387.5 129.468 387.603 133.103V133.103C387.551 136.837 388.339 140.529 389.902 143.869C391.321 146.947 393.501 149.552 396.206 151.402C398.911 153.225 402.052 154.171 405.25 154.124V154.124C408.15 154.184 411 153.314 413.432 151.627C415.898 149.905 417.847 147.46 419.046 144.586C420.461 141.267 421.155 137.649 421.077 134.004H420.981Z" fill="white"/>
</svg>
